<?xml version="1.0" encoding="UTF-8"?>
<!DOCTYPE svg PUBLIC "-//W3C//DTD SVG 1.1//EN" "http://www.w3.org/Graphics/SVG/1.1/DTD/svg11.dtd">
<svg xmlns="http://www.w3.org/2000/svg" version="1.1" width="512px" height="512px" style="shape-rendering:geometricPrecision; text-rendering:geometricPrecision; image-rendering:optimizeQuality; fill-rule:evenodd; clip-rule:evenodd" xmlns:xlink="http://www.w3.org/1999/xlink">
<g><path style="opacity:0.975" fill="#042447" d="M 154.5,17.5 C 177.62,15.8242 199.62,19.9908 220.5,30C 246.813,43.3224 270.479,60.3224 291.5,81C 307.478,97.137 322.145,114.304 335.5,132.5C 362.596,137.093 375.43,153.093 374,180.5C 370.339,198.007 359.839,208.84 342.5,213C 332.302,214.668 322.635,213.168 313.5,208.5C 309.015,212.485 304.682,216.651 300.5,221C 311.103,236.016 314.269,252.516 310,270.5C 308.096,276.808 305.262,282.641 301.5,288C 306.301,291.799 310.801,295.966 315,300.5C 320.005,297.081 325.505,294.914 331.5,294C 338.893,293.68 346.226,294.014 353.5,295C 385.519,273.315 413.352,247.149 437,216.5C 446.941,202.615 453.608,187.281 457,170.5C 459.599,148.861 451.099,133.361 431.5,124C 419.355,118.837 406.688,115.837 393.5,115C 375.138,114.557 356.804,114.89 338.5,116C 336.667,115.5 335.5,114.333 335,112.5C 334.071,108.756 334.571,105.256 336.5,102C 366.972,92.8058 397.972,90.4724 429.5,95C 475.905,104.74 497.071,133.24 493,180.5C 490.326,198.189 484.659,214.856 476,230.5C 456.595,262.916 432.428,291.416 403.5,316C 395.167,322.5 386.833,329 378.5,335.5C 373.877,362.631 357.877,375.464 330.5,374C 312.773,370.606 301.939,360.106 298,342.5C 296.332,332.302 297.832,322.635 302.5,313.5C 298.515,309.015 294.349,304.682 290,300.5C 270.864,313.001 250.698,314.834 229.5,306C 227.246,304.623 225.08,303.123 223,301.5C 219.201,306.301 215.034,310.801 210.5,315C 213.919,320.005 216.086,325.505 217,331.5C 217.437,338.905 217.104,346.239 216,353.5C 237.685,385.519 263.851,413.352 294.5,437C 308.392,446.945 323.726,453.612 340.5,457C 358.542,459.548 372.708,453.381 383,438.5C 390.906,424.546 395.239,409.546 396,393.5C 397.018,376.191 396.185,359.025 393.5,342C 395.317,335.255 399.65,332.922 406.5,335C 407.416,335.374 408.25,335.874 409,336.5C 418.194,366.972 420.528,397.972 416,429.5C 406.26,475.905 377.76,497.071 330.5,493C 312.811,490.326 296.144,484.659 280.5,476C 248.084,456.595 219.584,432.428 195,403.5C 188.5,395.167 182,386.833 175.5,378.5C 146.163,373.327 133.663,355.994 138,326.5C 146.113,304.353 161.946,294.853 185.5,298C 189.76,298.809 193.76,300.309 197.5,302.5C 201.985,298.515 206.318,294.349 210.5,290C 199.897,274.984 196.731,258.484 201,240.5C 202.904,234.192 205.738,228.359 209.5,223C 204.699,219.201 200.199,215.034 196,210.5C 190.995,213.919 185.495,216.086 179.5,217C 172.107,217.32 164.774,216.986 157.5,216C 125.481,237.685 97.6477,263.851 74,294.5C 64.0547,308.392 57.3881,323.726 54,340.5C 51.4524,358.542 57.6191,372.708 72.5,383C 91.2423,392.916 111.242,397.416 132.5,396.5C 145.841,395.776 159.175,395.276 172.5,395C 174.333,395.5 175.5,396.667 176,398.5C 176.929,402.244 176.429,405.744 174.5,409C 144.028,418.194 113.028,420.528 81.5,416C 35.0778,406.246 13.9111,377.746 18,330.5C 20.674,312.811 26.3407,296.144 35,280.5C 54.4055,248.084 78.5721,219.584 107.5,195C 115.833,188.5 124.167,182 132.5,175.5C 137.123,148.369 153.123,135.536 180.5,137C 197.818,140.796 208.651,151.296 213,168.5C 214.668,178.698 213.168,188.365 208.5,197.5C 212.485,201.985 216.651,206.318 221,210.5C 236.016,199.897 252.516,196.731 270.5,201C 276.808,202.904 282.641,205.738 288,209.5C 291.799,204.699 295.966,200.199 300.5,196C 297.081,190.995 294.914,185.495 294,179.5C 293.563,172.095 293.896,164.761 295,157.5C 273.315,125.481 247.149,97.6477 216.5,74C 202.608,64.0547 187.274,57.3881 170.5,54C 152.458,51.4524 138.292,57.6191 128,72.5C 120.094,86.4545 115.761,101.454 115,117.5C 113.982,134.809 114.815,151.976 117.5,169C 115.683,175.745 111.35,178.078 104.5,176C 103.584,175.626 102.75,175.126 102,174.5C 93.505,146.056 90.8384,117.056 94,87.5C 96.3969,65.5402 105.564,47.0402 121.5,32C 131.43,24.5309 142.43,19.6976 154.5,17.5 Z"/></g>
<g><path style="opacity:1" fill="#3687b0" d="M 156.5,33.5 C 176.501,32.4752 195.501,36.3085 213.5,45C 244.04,60.8773 270.874,81.7107 294,107.5C 302.402,116.732 310.235,126.399 317.5,136.5C 313.988,138.757 310.654,141.257 307.5,144C 306.833,144.667 306.167,144.667 305.5,144C 284.707,112.869 259.374,85.8693 229.5,63C 213.053,50.6115 194.72,42.2782 174.5,38C 166.833,37.3333 159.167,37.3333 151.5,38C 145.177,39.5193 139.177,41.5193 133.5,44C 140.596,39.0334 148.263,35.5334 156.5,33.5 Z"/></g>
<g><path style="opacity:1" fill="#84c2f7" d="M 466.5,133.5 C 473.935,142.566 477.601,153.066 477.5,165C 477.119,172.88 476.286,180.713 475,188.5C 469.611,207.609 461.277,225.276 450,241.5C 428.687,270.647 403.52,295.98 374.5,317.5C 372.243,313.988 369.743,310.654 367,307.5C 366.333,306.833 366.333,306.167 367,305.5C 397.767,284.265 424.767,258.932 448,229.5C 460.388,213.053 468.722,194.72 473,174.5C 475.288,160.011 473.122,146.344 466.5,133.5 Z"/></g>
<g><path style="opacity:1" fill="#88c6fb" d="M 327.5,149.5 C 347.529,148.37 357.696,157.703 358,177.5C 354.779,190.22 346.613,196.887 333.5,197.5C 315.782,194.769 308.282,184.435 311,166.5C 313.993,158.341 319.493,152.674 327.5,149.5 Z"/></g>
<g><path style="opacity:1" fill="#3789b3" d="M 168.5,152.5 C 188.502,152.666 198.002,162.666 197,182.5C 190.862,197.985 179.695,203.485 163.5,199C 150.392,191.083 146.558,179.916 152,165.5C 155.939,159.048 161.439,154.714 168.5,152.5 Z"/></g>
<g><path style="opacity:1" fill="#84c2f7" d="M 135.5,193.5 C 138.534,196.505 141.368,199.838 144,203.5C 144.667,204.167 144.667,204.833 144,205.5C 106.956,230.211 76.289,261.211 52,298.5C 40.4474,316.936 35.7808,336.936 38,358.5C 39.3723,363.926 40.7056,369.259 42,374.5C 34.5014,361.854 31.8347,348.187 34,333.5C 38.9814,307.209 49.6481,283.542 66,262.5C 86.4,236.6 109.567,213.6 135.5,193.5 Z"/></g>
<g><path style="opacity:1" fill="#37a1e0" d="M 247.5,215.5 C 271.889,213.756 287.723,224.422 295,247.5C 297.173,272.314 286.34,288.147 262.5,295C 241.59,297.087 226.757,288.587 218,269.5C 211.757,242.604 221.591,224.604 247.5,215.5 Z"/></g>
<g><path style="opacity:1" fill="#3789b3" d="M 330.5,310.5 C 351.665,308.835 361.831,318.501 361,339.5C 355.65,354.592 345.15,360.425 329.5,357C 314.231,349.093 310.064,337.26 317,321.5C 320.336,316.269 324.836,312.602 330.5,310.5 Z"/></g>
<g><path style="opacity:1" fill="#88c6fb" d="M 170.5,313.5 C 192.2,312.697 202.033,323.03 200,344.5C 191.798,361.456 179.298,365.623 162.5,357C 149.235,343.968 149.235,330.968 162.5,318C 165.391,316.726 168.058,315.226 170.5,313.5 Z"/></g>
<g><path style="opacity:1" fill="#3687b0" d="M 203.5,366.5 C 204.496,366.414 205.329,366.748 206,367.5C 230.544,404.378 261.378,434.878 298.5,459C 316.936,470.553 336.936,475.219 358.5,473C 363.926,471.628 369.259,470.294 374.5,469C 361.44,476.278 347.44,478.945 332.5,477C 313.867,473.683 296.534,467.016 280.5,457C 246.523,434.859 217.523,407.359 193.5,374.5C 197.268,372.294 200.602,369.628 203.5,366.5 Z"/></g>
</svg>
